<?xml version="1.0" encoding="UTF-8"?>
<svg xmlns="http://www.w3.org/2000/svg" viewBox="0 0 418.47 315.01">
  <defs>
    <style>
      .cls-1 {
        fill: none;
      }

      .cls-1, .cls-2, .cls-3 {
        stroke: #fff;
        stroke-miterlimit: 10;
      }

      .cls-1, .cls-3 {
        stroke-width: 11px;
      }

      .cls-2 {
        stroke-width: 7px;
      }

      .cls-2, .cls-3 {
        fill: #fff;
      }
    </style>
  </defs>
  <g id="fitted">
    <path class="cls-1" d="M56.48,80.5h48.69c7.63,0,13.81,6.18,13.81,13.81v47.38c0,7.63-6.18,13.81-13.81,13.81H20.29c-7.63,0-13.81-6.18-13.81-13.81V19.31c0-7.63,6.18-13.81,13.81-13.81h148.69s12.5,300-12.5,300S143.98,5.5,143.98,5.5h148.69c7.63,0,13.81,6.18,13.81,13.81v123.69c0,4.91-2.61,9.45-6.85,11.93L6.48,305.5s12.5-125,100-125c62.5,0,125,112.5,125,112.5l25-75,37.5,37.5,25-62.5,25,25,12.5-37.5,25-25"/>
    <circle class="cls-3" cx="68.98" cy="80.5" r="12.5"/>
    <circle class="cls-3" cx="225.23" cy="118" r="18.75"/>
    <polygon class="cls-3" points="377.59 177.95 376.32 160.8 359.62 156.71 375.53 150.2 374.26 133.05 385.37 146.18 401.28 139.67 392.23 154.29 403.34 167.41 386.64 163.33 377.59 177.95"/>
  </g>
  <g id="fitted_copy" data-name="fitted copy">
    <path class="cls-1" d="M56.48,80.5h48.69c7.63,0,13.81,6.18,13.81,13.81v47.38c0,7.63-6.18,13.81-13.81,13.81H20.29c-7.63,0-13.81-6.18-13.81-13.81V19.31c0-7.63,6.18-13.81,13.81-13.81h148.69s12.5,300-12.5,300S143.98,5.5,143.98,5.5h148.69c7.63,0,13.81,6.18,13.81,13.81v123.69c0,4.91-2.61,9.45-6.85,11.93L6.48,305.5s12.5-125,100-125c62.5,0,125,112.5,125,112.5l25-75,37.5,37.5,25-62.5,25,25,12.5-37.5,25-25"/>
    <circle class="cls-2" cx="68.98" cy="80.5" r="12.5"/>
    <circle class="cls-2" cx="225.23" cy="118" r="18.75"/>
    <polygon class="cls-2" points="377.59 177.95 376.32 160.8 359.62 156.71 375.53 150.2 374.26 133.05 385.37 146.18 401.28 139.67 392.23 154.29 403.34 167.41 386.64 163.33 377.59 177.95"/>
  </g>
</svg>